<svg xmlns="http://www.w3.org/2000/svg" viewBox="0 0 256 256">
  <defs>
    <linearGradient id="core" x1="28" x2="214" y1="28" y2="220" gradientUnits="userSpaceOnUse">
      <stop offset="0" stop-color="#fff6de"/>
      <stop offset=".44" stop-color="#e8cf86"/>
      <stop offset="1" stop-color="#6c5427"/>
    </linearGradient>
    <linearGradient id="shine" x1="60" x2="188" y1="32" y2="178" gradientUnits="userSpaceOnUse">
      <stop offset="0" stop-color="#fff9ea" stop-opacity=".94"/>
      <stop offset="1" stop-color="#fff9ea" stop-opacity="0"/>
    </linearGradient>
  </defs>
  <g transform="translate(128 128) rotate(12)">
    <path d="M20-94c40 9 73 40 83 76-10 22-28 42-51 58-21 14-45 24-69 28-22-18-37-44-45-75 16-33 43-60 82-77z" fill="url(#core)" stroke="#fff4d8" stroke-opacity=".72" stroke-width="10" stroke-linejoin="round"/>
    <path d="M15-66c26 7 48 23 61 45-8 13-19 25-34 35-14 10-29 16-43 19-13-10-23-26-29-46 10-22 25-39 45-53z" fill="#231a2d" fill-opacity=".78"/>
    <path d="M27-86c23 5 44 16 60 31-24 3-44 12-61 27-15 12-26 27-33 44-10-14-15-32-13-49 9-23 25-40 47-53z" fill="url(#shine)"/>
    <circle cx="61" cy="-60" r="9" fill="#fff7e7"/>
    <circle cx="61" cy="-60" r="23" fill="#fff7e7" fill-opacity=".22"/>
  </g>
</svg>
