<svg xmlns="http://www.w3.org/2000/svg" width="1200" height="630" viewBox="0 0 1200 630" role="img" aria-labelledby="title desc">
  <title id="title">Solar Defense share card</title>
  <desc id="desc">Solar Defense social preview card with the game title and a shielded sun emblem.</desc>
  <defs>
    <linearGradient id="bg" x1="90" y1="40" x2="1110" y2="630" gradientUnits="userSpaceOnUse">
      <stop offset="0" stop-color="#0a1630"/>
      <stop offset="0.55" stop-color="#081227"/>
      <stop offset="1" stop-color="#02050d"/>
    </linearGradient>
    <radialGradient id="flare" cx="0.84" cy="0.24" r="0.6">
      <stop offset="0" stop-color="#3d7cff" stop-opacity="0.28"/>
      <stop offset="1" stop-color="#3d7cff" stop-opacity="0"/>
    </radialGradient>
    <linearGradient id="chipStroke" x1="0" y1="0" x2="1" y2="1">
      <stop offset="0" stop-color="#47d5ff"/>
      <stop offset="1" stop-color="#2c7dff"/>
    </linearGradient>
    <linearGradient id="badgeSpace" x1="8" y1="6" x2="56" y2="58" gradientUnits="userSpaceOnUse">
      <stop offset="0" stop-color="#0a1630"/>
      <stop offset="1" stop-color="#02050d"/>
    </linearGradient>
    <radialGradient id="badgeSun" cx="0.42" cy="0.36" r="0.72">
      <stop offset="0" stop-color="#fff2a6"/>
      <stop offset="0.55" stop-color="#ffbf47"/>
      <stop offset="1" stop-color="#f36a1f"/>
    </radialGradient>
    <linearGradient id="badgeShield" x1="16" y1="12" x2="46" y2="55" gradientUnits="userSpaceOnUse">
      <stop offset="0" stop-color="#8cecff"/>
      <stop offset="1" stop-color="#389dff"/>
    </linearGradient>
  </defs>
  <rect width="1200" height="630" rx="36" fill="url(#bg)"/>
  <rect width="1200" height="630" rx="36" fill="url(#flare)"/>
  <g fill="#d7e9ff" opacity="0.7">
    <circle cx="82" cy="92" r="2"/>
    <circle cx="144" cy="162" r="1.6"/>
    <circle cx="248" cy="96" r="1.2"/>
    <circle cx="410" cy="68" r="1.8"/>
    <circle cx="552" cy="122" r="1.4"/>
    <circle cx="636" cy="84" r="1.6"/>
    <circle cx="1048" cy="84" r="1.7"/>
    <circle cx="1112" cy="162" r="1.3"/>
    <circle cx="986" cy="484" r="1.9"/>
    <circle cx="1084" cy="552" r="1.5"/>
    <circle cx="782" cy="548" r="1.2"/>
  </g>
  <path d="M0 545C170 470 335 452 515 493C696 535 865 617 1200 508V630H0Z" fill="#0d1a37" fill-opacity="0.8"/>
  <path d="M-40 520C154 446 356 430 566 486C724 527 886 602 1240 486" fill="none" stroke="#173163" stroke-width="2" stroke-opacity="0.6"/>
  <g transform="translate(76 78)">
    <rect width="186" height="42" rx="21" fill="#10224a" stroke="#35caff" stroke-opacity="0.45"/>
    <circle cx="24" cy="21" r="7" fill="#ffb53a"/>
    <text x="42" y="27" font-family="Verdana, Geneva, sans-serif" font-size="18" letter-spacing="1.2" fill="#dcefff">LEARNFUN GAME</text>
    <text x="0" y="170" font-family="Verdana, Geneva, sans-serif" font-size="108" font-weight="700" letter-spacing="4" fill="#f8fbff">SOLAR</text>
    <text x="0" y="275" font-family="Verdana, Geneva, sans-serif" font-size="108" font-weight="700" letter-spacing="4" fill="#f8fbff">DEFENSE</text>
    <text x="0" y="350" font-family="Verdana, Geneva, sans-serif" font-size="34" fill="#b8c9ea">Explore eight planets, scan clues, solve</text>
    <text x="0" y="392" font-family="Verdana, Geneva, sans-serif" font-size="34" fill="#b8c9ea">science puzzles, then defend the system.</text>
    <rect x="0" y="448" width="150" height="48" rx="24" fill="#10224a" stroke="url(#chipStroke)" stroke-opacity="0.45"/>
    <rect x="166" y="448" width="202" height="48" rx="24" fill="#10224a" stroke="url(#chipStroke)" stroke-opacity="0.45"/>
    <rect x="384" y="448" width="184" height="48" rx="24" fill="#10224a" stroke="url(#chipStroke)" stroke-opacity="0.45"/>
    <text x="32" y="479" font-family="Verdana, Geneva, sans-serif" font-size="22" fill="#e6f5ff">8 planets</text>
    <text x="197" y="479" font-family="Verdana, Geneva, sans-serif" font-size="22" fill="#e6f5ff">science puzzles</text>
    <text x="418" y="479" font-family="Verdana, Geneva, sans-serif" font-size="22" fill="#e6f5ff">arcade mode</text>
  </g>
  <g transform="translate(700 70)">
    <circle cx="220" cy="220" r="196" fill="#ff9627" opacity="0.09"/>
    <circle cx="220" cy="220" r="252" fill="#3d7cff" opacity="0.08"/>
    <ellipse cx="220" cy="220" rx="252" ry="98" fill="none" stroke="#ffcc72" stroke-width="12" stroke-opacity="0.18" transform="rotate(-18 220 220)"/>
    <circle cx="392" cy="117" r="22" fill="#66d7ff" fill-opacity="0.92"/>
    <circle cx="398" cy="110" r="7" fill="#c8f7ff" fill-opacity="0.95"/>
    <g transform="translate(12 12) scale(6.5)">
      <rect width="64" height="64" rx="16" fill="url(#badgeSpace)"/>
      <g fill="#d7e9ff" opacity="0.85">
        <circle cx="14" cy="15" r="1.5"/>
        <circle cx="19" cy="24" r="1"/>
        <circle cx="49" cy="13" r="1.4"/>
        <circle cx="52" cy="22" r="1"/>
        <circle cx="46" cy="48" r="1.2"/>
      </g>
      <circle cx="32" cy="28" r="16" fill="#ff8d21" opacity="0.12"/>
      <circle cx="32" cy="28" r="12.5" fill="url(#badgeSun)"/>
      <path d="M32 10C44 10 52 18.2 52 30.2C52 43.1 44.1 53.5 32 58C19.9 53.5 12 43.1 12 30.2C12 18.2 20 10 32 10Z" fill="#0b1835" fill-opacity="0.18"/>
      <path d="M32 10C44 10 52 18.2 52 30.2C52 43.1 44.1 53.5 32 58C19.9 53.5 12 43.1 12 30.2C12 18.2 20 10 32 10Z" fill="none" stroke="url(#badgeShield)" stroke-width="3.5" stroke-linejoin="round"/>
      <path d="M44 18L45.5 21.6L49 23L45.5 24.4L44 28L42.6 24.4L39 23L42.6 21.6Z" fill="#fff3ab" opacity="0.9"/>
      <path d="M32 36L39 46H34.5L32 53L29.5 46H25Z" fill="#e9fbff"/>
      <circle cx="32" cy="43.5" r="1.5" fill="#0b1835"/>
    </g>
  </g>
</svg>
